<?xml version="1.0" encoding="UTF-8"?>
<!-- Created with Inkscape (http://www.inkscape.org/) -->
<svg width="512" height="512" version="1.1" viewBox="0 0 135.47 135.47" xml:space="preserve" xmlns="http://www.w3.org/2000/svg"><g transform="translate(-82.267 -.23767)" fill="none" stroke="#ffffff" stroke-width="10"><rect x="89.693" y="7.971" width="120" height="120" rx="9.156" ry="9.1563" stroke-linejoin="round"/><g stroke-linecap="round"><rect x="104" y="21.971" width="92" height="92" rx="9.156" ry="9.156" stroke-linejoin="round"/><path d="m179.84 67.971h-8.3939"/></g><g display="none" stroke-linecap="round"><path d="m160.87 67.971h-8.3939" display="inline" stroke-width="10"/><path d="m111.79 23.029 54.109-3.175c5.0637-0.29713 9.156 4.0836 9.156 9.156v77.921c0 5.0724-4.0923 9.4531-9.156 9.156l-54.109-3.175c-5.0637-0.29713-9.156-4.0836-9.156-9.156v-71.571c0-5.0724 4.0923-8.8589 9.156-9.156z" display="inline" stroke-linejoin="round"/><path d="m186.84 23.029c5.0724 0 9.156 4.0836 9.156 9.156v71.571c0 5.0724-4.0836 9.156-9.156 9.156" display="inline" stroke-linejoin="round"/></g></g></svg>
